<?xml version="1.0" encoding="UTF-8" standalone="no"?>
<!DOCTYPE svg PUBLIC "-//W3C//DTD SVG 1.1//EN"
 "http://www.w3.org/Graphics/SVG/1.1/DTD/svg11.dtd">
<!-- Generated by graphviz version 14.1.3 (0)
 -->
<!-- Title: snakemake_dag Pages: 1 -->
<svg width="680pt" height="404pt"
 viewBox="0.00 0.00 680.00 404.00" xmlns="http://www.w3.org/2000/svg" xmlns:xlink="http://www.w3.org/1999/xlink">
<g id="graph0" class="graph" transform="scale(1 1) rotate(0) translate(4 400)">
<title>snakemake_dag</title>
<polygon fill="white" stroke="none" points="-4,4 -4,-400 676.48,-400 676.48,4 -4,4"/>
<!-- 0 -->
<g id="node1" class="node">
<title>0</title>
<path fill="none" stroke="#d85656" stroke-width="2" d="M489,-36C489,-36 459,-36 459,-36 453,-36 447,-30 447,-24 447,-24 447,-12 447,-12 447,-6 453,0 459,0 459,0 489,0 489,0 495,0 501,-6 501,-12 501,-12 501,-24 501,-24 501,-30 495,-36 489,-36"/>
<text xml:space="preserve" text-anchor="middle" x="474" y="-14.88" font-family="sans" font-size="10.00">all</text>
</g>
<!-- 1 -->
<g id="node2" class="node">
<title>1</title>
<path fill="none" stroke="#d6d856" stroke-width="2" d="M42,-108C42,-108 12,-108 12,-108 6,-108 0,-102 0,-96 0,-96 0,-84 0,-84 0,-78 6,-72 12,-72 12,-72 42,-72 42,-72 48,-72 54,-78 54,-84 54,-84 54,-96 54,-96 54,-102 48,-108 42,-108"/>
<text xml:space="preserve" text-anchor="middle" x="27" y="-86.88" font-family="sans" font-size="10.00">fastqc</text>
</g>
<!-- 1&#45;&gt;0 -->
<g id="edge1" class="edge">
<title>1&#45;&gt;0</title>
<path fill="none" stroke="grey" stroke-width="2" d="M54.89,-76.3C59.22,-74.66 63.68,-73.16 68,-72 198.91,-36.98 359.99,-24.72 433.71,-20.75"/>
<polygon fill="grey" stroke="grey" stroke-width="2" points="433.6,-24.26 443.41,-20.26 433.25,-17.27 433.6,-24.26"/>
</g>
<!-- 2 -->
<g id="node3" class="node">
<title>2</title>
<path fill="none" stroke="#80d856" stroke-width="2" d="M296.12,-396C296.12,-396 259.88,-396 259.88,-396 253.88,-396 247.88,-390 247.88,-384 247.88,-384 247.88,-372 247.88,-372 247.88,-366 253.88,-360 259.88,-360 259.88,-360 296.12,-360 296.12,-360 302.12,-360 308.12,-366 308.12,-372 308.12,-372 308.12,-384 308.12,-384 308.12,-390 302.12,-396 296.12,-396"/>
<text xml:space="preserve" text-anchor="middle" x="278" y="-374.88" font-family="sans" font-size="10.00">parse_all</text>
</g>
<!-- 2&#45;&gt;0 -->
<g id="edge3" class="edge">
<title>2&#45;&gt;0</title>
<path fill="none" stroke="grey" stroke-width="2" d="M246.94,-369.82C191.68,-355.01 82,-315.47 82,-235 82,-235 82,-235 82,-161 82,-86.87 332.97,-40.46 433.28,-24.87"/>
<polygon fill="grey" stroke="grey" stroke-width="2" points="433.77,-28.33 443.13,-23.37 432.72,-21.41 433.77,-28.33"/>
</g>
<!-- 3 -->
<g id="node4" class="node">
<title>3</title>
<path fill="none" stroke="#70d856" stroke-width="2" d="M598.62,-324C598.62,-324 547.38,-324 547.38,-324 541.38,-324 535.38,-318 535.38,-312 535.38,-312 535.38,-300 535.38,-300 535.38,-294 541.38,-288 547.38,-288 547.38,-288 598.62,-288 598.62,-288 604.62,-288 610.62,-294 610.62,-300 610.62,-300 610.62,-312 610.62,-312 610.62,-318 604.62,-324 598.62,-324"/>
<text xml:space="preserve" text-anchor="middle" x="573" y="-302.88" font-family="sans" font-size="10.00">parse_comb</text>
</g>
<!-- 2&#45;&gt;3 -->
<g id="edge8" class="edge">
<title>2&#45;&gt;3</title>
<path fill="none" stroke="grey" stroke-width="2" d="M309.01,-369.64C359.7,-357.61 460.77,-333.63 522.09,-319.08"/>
<polygon fill="grey" stroke="grey" stroke-width="2" points="522.67,-322.54 531.59,-316.83 521.05,-315.73 522.67,-322.54"/>
</g>
<!-- 3&#45;&gt;0 -->
<g id="edge4" class="edge">
<title>3&#45;&gt;0</title>
<path fill="none" stroke="grey" stroke-width="2" d="M602.81,-287.04C615.96,-277.91 630.72,-265.81 641,-252 670.61,-212.22 677.55,-192.84 669,-144 663.13,-110.49 667.56,-95.54 643,-72 608.05,-38.51 552.17,-26.16 514.32,-21.62"/>
<polygon fill="grey" stroke="grey" stroke-width="2" points="515.07,-18.18 504.76,-20.63 514.35,-25.15 515.07,-18.18"/>
</g>
<!-- 4 -->
<g id="node5" class="node">
<title>4</title>
<path fill="none" stroke="#61d856" stroke-width="2" d="M556.62,-252C556.62,-252 391.38,-252 391.38,-252 385.38,-252 379.38,-246 379.38,-240 379.38,-240 379.38,-228 379.38,-228 379.38,-222 385.38,-216 391.38,-216 391.38,-216 556.62,-216 556.62,-216 562.62,-216 568.62,-222 568.62,-228 568.62,-228 568.62,-240 568.62,-240 568.62,-246 562.62,-252 556.62,-252"/>
<text xml:space="preserve" text-anchor="middle" x="474" y="-230.88" font-family="sans" font-size="10.00">parse_harmony_integration_python</text>
</g>
<!-- 3&#45;&gt;4 -->
<g id="edge9" class="edge">
<title>3&#45;&gt;4</title>
<path fill="none" stroke="grey" stroke-width="2" d="M547.76,-287.15C536.24,-279.01 522.39,-269.22 509.82,-260.33"/>
<polygon fill="grey" stroke="grey" stroke-width="2" points="511.85,-257.48 501.66,-254.56 507.81,-263.19 511.85,-257.48"/>
</g>
<!-- 9 -->
<g id="node10" class="node">
<title>9</title>
<path fill="none" stroke="#c6d856" stroke-width="2" d="M622,-108C622,-108 552,-108 552,-108 546,-108 540,-102 540,-96 540,-96 540,-84 540,-84 540,-78 546,-72 552,-72 552,-72 622,-72 622,-72 628,-72 634,-78 634,-84 634,-84 634,-96 634,-96 634,-102 628,-108 622,-108"/>
<text xml:space="preserve" text-anchor="middle" x="587" y="-86.88" font-family="sans" font-size="10.00">generate_report</text>
</g>
<!-- 3&#45;&gt;9 -->
<g id="edge16" class="edge">
<title>3&#45;&gt;9</title>
<path fill="none" stroke="grey" stroke-width="2" d="M589.17,-287.2C608.72,-264.34 640.55,-222.53 653,-180 657.49,-164.64 659.92,-158.43 653,-144 647.87,-133.3 639.4,-124.07 630.22,-116.45"/>
<polygon fill="grey" stroke="grey" stroke-width="2" points="632.61,-113.87 622.51,-110.65 628.4,-119.46 632.61,-113.87"/>
</g>
<!-- 4&#45;&gt;0 -->
<g id="edge6" class="edge">
<title>4&#45;&gt;0</title>
<path fill="none" stroke="grey" stroke-width="2" d="M474,-215.12C474,-178.62 474,-95.13 474,-49.74"/>
<polygon fill="grey" stroke="grey" stroke-width="2" points="477.5,-50 474,-40 470.5,-50 477.5,-50"/>
</g>
<!-- 5 -->
<g id="node6" class="node">
<title>5</title>
<path fill="none" stroke="#56d892" stroke-width="2" d="M632.38,-180C632.38,-180 513.62,-180 513.62,-180 507.62,-180 501.62,-174 501.62,-168 501.62,-168 501.62,-156 501.62,-156 501.62,-150 507.62,-144 513.62,-144 513.62,-144 632.38,-144 632.38,-144 638.38,-144 644.38,-150 644.38,-156 644.38,-156 644.38,-168 644.38,-168 644.38,-174 638.38,-180 632.38,-180"/>
<text xml:space="preserve" text-anchor="middle" x="573" y="-158.88" font-family="sans" font-size="10.00">parse_harmony_notebook</text>
</g>
<!-- 4&#45;&gt;5 -->
<g id="edge10" class="edge">
<title>4&#45;&gt;5</title>
<path fill="none" stroke="grey" stroke-width="2" d="M499.24,-215.15C510.76,-207.01 524.61,-197.22 537.18,-188.33"/>
<polygon fill="grey" stroke="grey" stroke-width="2" points="539.19,-191.19 545.34,-182.56 535.15,-185.48 539.19,-191.19"/>
</g>
<!-- 7 -->
<g id="node8" class="node">
<title>7</title>
<path fill="none" stroke="#d89c56" stroke-width="2" d="M319.75,-180C319.75,-180 122.25,-180 122.25,-180 116.25,-180 110.25,-174 110.25,-168 110.25,-168 110.25,-156 110.25,-156 110.25,-150 116.25,-144 122.25,-144 122.25,-144 319.75,-144 319.75,-144 325.75,-144 331.75,-150 331.75,-156 331.75,-156 331.75,-168 331.75,-168 331.75,-174 325.75,-180 319.75,-180"/>
<text xml:space="preserve" text-anchor="middle" x="221" y="-158.88" font-family="sans" font-size="10.00">convert_harmony_integrated_h5ad_to_rds</text>
</g>
<!-- 4&#45;&gt;7 -->
<g id="edge13" class="edge">
<title>4&#45;&gt;7</title>
<path fill="none" stroke="grey" stroke-width="2" d="M409.17,-215.06C375.25,-205.68 333.5,-194.13 297.95,-184.29"/>
<polygon fill="grey" stroke="grey" stroke-width="2" points="299.15,-180.99 288.57,-181.7 297.28,-187.74 299.15,-180.99"/>
</g>
<!-- 8 -->
<g id="node9" class="node">
<title>8</title>
<path fill="none" stroke="#56c9d8" stroke-width="2" d="M433.75,-180C433.75,-180 362.25,-180 362.25,-180 356.25,-180 350.25,-174 350.25,-168 350.25,-168 350.25,-156 350.25,-156 350.25,-150 356.25,-144 362.25,-144 362.25,-144 433.75,-144 433.75,-144 439.75,-144 445.75,-150 445.75,-156 445.75,-156 445.75,-168 445.75,-168 445.75,-174 439.75,-180 433.75,-180"/>
<text xml:space="preserve" text-anchor="middle" x="398" y="-158.88" font-family="sans" font-size="10.00">save_raw_adata</text>
</g>
<!-- 4&#45;&gt;8 -->
<g id="edge14" class="edge">
<title>4&#45;&gt;8</title>
<path fill="none" stroke="grey" stroke-width="2" d="M454.82,-215.34C446.34,-207.52 436.18,-198.16 426.81,-189.53"/>
<polygon fill="grey" stroke="grey" stroke-width="2" points="429.39,-187.15 419.66,-182.95 424.65,-192.3 429.39,-187.15"/>
</g>
<!-- 5&#45;&gt;0 -->
<g id="edge2" class="edge">
<title>5&#45;&gt;0</title>
<path fill="none" stroke="grey" stroke-width="2" d="M558.16,-143.19C549.9,-133.07 539.59,-120.04 531,-108 516.99,-88.37 502.34,-65.43 491.4,-47.76"/>
<polygon fill="grey" stroke="grey" stroke-width="2" points="494.43,-46.01 486.22,-39.32 488.46,-49.67 494.43,-46.01"/>
</g>
<!-- 5&#45;&gt;9 -->
<g id="edge15" class="edge">
<title>5&#45;&gt;9</title>
<path fill="none" stroke="grey" stroke-width="2" d="M576.53,-143.34C577.85,-136.75 579.38,-129.08 580.87,-121.67"/>
<polygon fill="grey" stroke="grey" stroke-width="2" points="584.3,-122.36 582.83,-111.87 577.43,-120.99 584.3,-122.36"/>
</g>
<!-- 6 -->
<g id="node7" class="node">
<title>6</title>
<path fill="none" stroke="#d86656" stroke-width="2" d="M434.12,-108C434.12,-108 349.88,-108 349.88,-108 343.88,-108 337.88,-102 337.88,-96 337.88,-96 337.88,-84 337.88,-84 337.88,-78 343.88,-72 349.88,-72 349.88,-72 434.12,-72 434.12,-72 440.12,-72 446.12,-78 446.12,-84 446.12,-84 446.12,-96 446.12,-96 446.12,-102 440.12,-108 434.12,-108"/>
<text xml:space="preserve" text-anchor="middle" x="392" y="-86.88" font-family="sans" font-size="10.00">build_seurat5shiny</text>
</g>
<!-- 6&#45;&gt;0 -->
<g id="edge7" class="edge">
<title>6&#45;&gt;0</title>
<path fill="none" stroke="grey" stroke-width="2" d="M412.69,-71.34C421.94,-63.44 433.04,-53.96 443.24,-45.26"/>
<polygon fill="grey" stroke="grey" stroke-width="2" points="445.39,-48.02 450.73,-38.87 440.85,-42.7 445.39,-48.02"/>
</g>
<!-- 7&#45;&gt;6 -->
<g id="edge11" class="edge">
<title>7&#45;&gt;6</title>
<path fill="none" stroke="grey" stroke-width="2" d="M264.59,-143.15C286.42,-134.22 313.08,-123.31 336.37,-113.77"/>
<polygon fill="grey" stroke="grey" stroke-width="2" points="337.46,-117.11 345.39,-110.08 334.81,-110.63 337.46,-117.11"/>
</g>
<!-- 8&#45;&gt;6 -->
<g id="edge12" class="edge">
<title>8&#45;&gt;6</title>
<path fill="none" stroke="grey" stroke-width="2" d="M396.49,-143.34C395.92,-136.75 395.26,-129.08 394.63,-121.67"/>
<polygon fill="grey" stroke="grey" stroke-width="2" points="398.13,-121.58 393.79,-111.92 391.16,-122.18 398.13,-121.58"/>
</g>
<!-- 9&#45;&gt;0 -->
<g id="edge5" class="edge">
<title>9&#45;&gt;0</title>
<path fill="none" stroke="grey" stroke-width="2" d="M558.19,-71.15C544.44,-62.63 527.77,-52.31 512.91,-43.1"/>
<polygon fill="grey" stroke="grey" stroke-width="2" points="514.89,-40.21 504.55,-37.92 511.2,-46.16 514.89,-40.21"/>
</g>
</g>
</svg>
